<svg width="99" height="37" viewBox="0 0 99 37" fill="none" xmlns="http://www.w3.org/2000/svg">
<rect width="99" height="37" rx="5" fill="#E3E3E3"/>
<path d="M77.6943 7.97402C78.4787 6.7281 80.2949 6.7281 81.0793 7.97401L92.0158 25.3451C92.8543 26.677 91.8971 28.4107 90.3233 28.4107H68.4503C66.8764 28.4107 65.9192 26.677 66.7577 25.3451L77.6943 7.97402Z" fill="#FF6C6C"/>
<path d="M18.2146 27H16.0646V14.525C16.0646 13.8083 16.0729 13.2333 16.0896 12.8C16.1063 12.3667 16.1313 11.9167 16.1646 11.45C15.8979 11.7167 15.6563 11.9417 15.4396 12.125C15.2229 12.3083 14.9479 12.5417 14.6146 12.825L12.7146 14.375L11.5646 12.9L16.3896 9.15H18.2146V27ZM36.6462 27H24.8462V25.175L29.5212 20.45C30.4212 19.55 31.1796 18.75 31.7962 18.05C32.4129 17.35 32.8796 16.6667 33.1962 16C33.5129 15.3167 33.6712 14.575 33.6712 13.775C33.6712 12.7917 33.3796 12.05 32.7962 11.55C32.2129 11.0333 31.4546 10.775 30.5212 10.775C29.6546 10.775 28.8879 10.925 28.2212 11.225C27.5712 11.525 26.9046 11.9417 26.2212 12.475L25.0462 11C25.7462 10.4167 26.5462 9.925 27.4462 9.525C28.3629 9.10833 29.3879 8.9 30.5212 8.9C32.1879 8.9 33.5046 9.325 34.4712 10.175C35.4379 11.0083 35.9212 12.1667 35.9212 13.65C35.9212 14.5833 35.7296 15.4583 35.3462 16.275C34.9629 17.0917 34.4296 17.9 33.7462 18.7C33.0629 19.4833 32.2629 20.325 31.3462 21.225L27.6212 24.9V25H36.6462V27ZM45.0779 8.9C46.6445 8.9 47.9279 9.26667 48.9279 10C49.9279 10.7333 50.4279 11.7917 50.4279 13.175C50.4279 13.8917 50.2695 14.5167 49.9529 15.05C49.6529 15.5833 49.2445 16.0583 48.7279 16.475C48.2112 16.875 47.6445 17.2333 47.0279 17.55C47.7612 17.9 48.4279 18.3 49.0279 18.75C49.6279 19.1833 50.1029 19.6917 50.4529 20.275C50.8195 20.8583 51.0029 21.5583 51.0029 22.375C51.0029 23.875 50.4695 25.0667 49.4029 25.95C48.3529 26.8167 46.9362 27.25 45.1529 27.25C43.2362 27.25 41.7612 26.8333 40.7279 26C39.6945 25.15 39.1779 23.9667 39.1779 22.45C39.1779 21.6333 39.3445 20.925 39.6779 20.325C40.0279 19.725 40.4862 19.2083 41.0529 18.775C41.6195 18.3417 42.2279 17.975 42.8779 17.675C42.0112 17.175 41.2695 16.575 40.6529 15.875C40.0529 15.1583 39.7529 14.25 39.7529 13.15C39.7529 12.2333 39.9862 11.4667 40.4529 10.85C40.9195 10.2167 41.5529 9.73333 42.3529 9.4C43.1529 9.06667 44.0612 8.9 45.0779 8.9ZM45.0529 10.675C44.1362 10.675 43.3779 10.9 42.7779 11.35C42.1945 11.7833 41.9029 12.4167 41.9029 13.25C41.9029 13.8667 42.0445 14.3833 42.3279 14.8C42.6279 15.2167 43.0279 15.575 43.5279 15.875C44.0279 16.1583 44.5779 16.4333 45.1779 16.7C46.0445 16.3333 46.7695 15.8917 47.3529 15.375C47.9529 14.8583 48.2529 14.15 48.2529 13.25C48.2529 12.4167 47.9612 11.7833 47.3779 11.35C46.7945 10.9 46.0195 10.675 45.0529 10.675ZM41.3279 22.475C41.3279 23.3417 41.6362 24.0667 42.2529 24.65C42.8695 25.2167 43.8195 25.5 45.1029 25.5C46.3195 25.5 47.2445 25.2167 47.8779 24.65C48.5279 24.0667 48.8529 23.3167 48.8529 22.4C48.8529 21.5333 48.5112 20.8167 47.8279 20.25C47.1445 19.6667 46.2362 19.1583 45.1029 18.725L44.7029 18.575C43.6029 19.0417 42.7612 19.5833 42.1779 20.2C41.6112 20.8 41.3279 21.5583 41.3279 22.475Z" fill="black"/>
</svg>
