<svg width="26" height="23" viewBox="0 0 26 23" fill="none" xmlns="http://www.w3.org/2000/svg">
<path d="M12.5087 7.42712C11.6795 7.42712 10.8843 7.73002 10.2979 8.26919C9.7116 8.80836 9.3822 9.53963 9.3822 10.3021C9.3822 11.0646 9.7116 11.7959 10.2979 12.3351C10.8843 12.8742 11.6795 13.1771 12.5087 13.1771C13.3379 13.1771 14.1332 12.8742 14.7195 12.3351C15.3058 11.7959 15.6352 11.0646 15.6352 10.3021C15.6352 9.53963 15.3058 8.80836 14.7195 8.26919C14.1332 7.73002 13.3379 7.42712 12.5087 7.42712ZM10.6849 10.3021C10.6849 9.85733 10.8771 9.43076 11.2191 9.11625C11.5611 8.80173 12.025 8.62504 12.5087 8.62504C12.9924 8.62504 13.4563 8.80173 13.7983 9.11625C14.1404 9.43076 14.3325 9.85733 14.3325 10.3021C14.3325 10.7469 14.1404 11.1735 13.7983 11.488C13.4563 11.8025 12.9924 11.9792 12.5087 11.9792C12.025 11.9792 11.5611 11.8025 11.2191 11.488C10.8771 11.1735 10.6849 10.7469 10.6849 10.3021Z" fill="black"/>
<path d="M19.2802 15.3334L14.0235 20.4652C13.8286 20.6555 13.5935 20.8071 13.3325 20.9108C13.0716 21.0144 12.7903 21.0679 12.5061 21.0679C12.2218 21.0679 11.9406 21.0144 11.6796 20.9108C11.4187 20.8071 11.1835 20.6555 10.9887 20.4652L5.73194 15.3334H5.75174L5.74288 15.3238L5.73194 15.3118C4.38269 13.8444 3.64401 11.9841 3.6476 10.0625C3.6476 5.56363 7.61358 1.91669 12.5061 1.91669C17.3985 1.91669 21.3645 5.56363 21.3645 10.0625C21.3681 11.9841 20.6294 13.8444 19.2802 15.3118L19.2692 15.3238L19.2604 15.3334H19.2802ZM18.2677 14.5576C19.4287 13.3035 20.0649 11.7095 20.0618 10.0625C20.0618 6.22535 16.6789 3.1146 12.5061 3.1146C8.3332 3.1146 4.95031 6.22535 4.95031 10.0625C4.95031 11.7779 5.6246 13.3458 6.74441 14.5576L6.90491 14.7315L11.937 19.6435C12.0101 19.7148 12.0983 19.7717 12.1961 19.8105C12.294 19.8494 12.3995 19.8695 12.5061 19.8695C12.6127 19.8695 12.7181 19.8494 12.816 19.8105C12.9138 19.7717 13.002 19.7148 13.0751 19.6435L18.1072 14.7315L18.2677 14.5576Z" fill="black"/>
</svg>
