<svg width="99" height="37" viewBox="0 0 99 37" fill="none" xmlns="http://www.w3.org/2000/svg">
<rect width="99" height="37" rx="5" fill="#E3E3E3"/>
<path d="M79.2113 28.145C78.4269 29.3909 76.6107 29.3909 75.8263 28.145L64.8897 10.7739C64.0512 9.44203 65.0084 7.70831 66.5823 7.70831H88.4553C90.0291 7.70831 90.9863 9.44202 90.1478 10.7739L79.2113 28.145Z" fill="#7CE063"/>
<path d="M37.0117 9.78098C38.5784 9.78098 39.8617 10.1476 40.8617 10.881C41.8617 11.6143 42.3617 12.6726 42.3617 14.056C42.3617 14.7726 42.2034 15.3976 41.8867 15.931C41.5867 16.4643 41.1784 16.9393 40.6617 17.356C40.1451 17.756 39.5784 18.1143 38.9617 18.431C39.6951 18.781 40.3617 19.181 40.9617 19.631C41.5617 20.0643 42.0367 20.5726 42.3867 21.156C42.7534 21.7393 42.9367 22.4393 42.9367 23.256C42.9367 24.756 42.4034 25.9476 41.3367 26.831C40.2867 27.6976 38.8701 28.131 37.0867 28.131C35.1701 28.131 33.6951 27.7143 32.6617 26.881C31.6284 26.031 31.1117 24.8476 31.1117 23.331C31.1117 22.5143 31.2784 21.806 31.6117 21.206C31.9617 20.606 32.4201 20.0893 32.9867 19.656C33.5534 19.2226 34.1617 18.856 34.8117 18.556C33.9451 18.056 33.2034 17.456 32.5867 16.756C31.9867 16.0393 31.6867 15.131 31.6867 14.031C31.6867 13.1143 31.9201 12.3476 32.3867 11.731C32.8534 11.0976 33.4867 10.6143 34.2867 10.281C35.0867 9.94765 35.9951 9.78098 37.0117 9.78098ZM36.9867 11.556C36.0701 11.556 35.3117 11.781 34.7117 12.231C34.1284 12.6643 33.8367 13.2976 33.8367 14.131C33.8367 14.7476 33.9784 15.2643 34.2617 15.681C34.5617 16.0976 34.9617 16.456 35.4617 16.756C35.9617 17.0393 36.5117 17.3143 37.1117 17.581C37.9784 17.2143 38.7034 16.7726 39.2867 16.256C39.8867 15.7393 40.1867 15.031 40.1867 14.131C40.1867 13.2976 39.8951 12.6643 39.3117 12.231C38.7284 11.781 37.9534 11.556 36.9867 11.556ZM33.2617 23.356C33.2617 24.2226 33.5701 24.9476 34.1867 25.531C34.8034 26.0976 35.7534 26.381 37.0367 26.381C38.2534 26.381 39.1784 26.0976 39.8117 25.531C40.4617 24.9476 40.7867 24.1976 40.7867 23.281C40.7867 22.4143 40.4451 21.6976 39.7617 21.131C39.0784 20.5476 38.1701 20.0393 37.0367 19.606L36.6367 19.456C35.5367 19.9226 34.6951 20.4643 34.1117 21.081C33.5451 21.681 33.2617 22.4393 33.2617 23.356Z" fill="black"/>
</svg>
