<svg width="236" height="35" viewBox="0 0 236 35" fill="none" xmlns="http://www.w3.org/2000/svg">
<path d="M13.743 5.778C13.743 6.474 13.668 7.068 13.518 7.56C13.374 8.052 13.143 8.43 12.825 8.694C12.507 8.958 12.087 9.09 11.565 9.09C10.827 9.09 10.281 8.799 9.927 8.217C9.579 7.629 9.405 6.816 9.405 5.778C9.405 5.088 9.474 4.497 9.612 4.005C9.756 3.507 9.987 3.129 10.305 2.871C10.623 2.607 11.043 2.475 11.565 2.475C12.297 2.475 12.843 2.766 13.203 3.348C13.563 3.924 13.743 4.734 13.743 5.778ZM10.359 5.778C10.359 6.618 10.449 7.248 10.629 7.668C10.809 8.082 11.121 8.289 11.565 8.289C12.003 8.289 12.315 8.082 12.501 7.668C12.687 7.254 12.78 6.624 12.78 5.778C12.78 4.944 12.687 4.32 12.501 3.906C12.315 3.486 12.003 3.276 11.565 3.276C11.121 3.276 10.809 3.486 10.629 3.906C10.449 4.32 10.359 4.944 10.359 5.778ZM14.4834 6.993V6.183H16.7154V6.993H14.4834ZM20.3988 9H19.4538V4.734C19.4538 4.512 19.4568 4.308 19.4628 4.122C19.4688 3.936 19.4778 3.756 19.4898 3.582C19.4118 3.66 19.3308 3.738 19.2468 3.816C19.1628 3.888 19.0668 3.969 18.9588 4.059L18.2568 4.626L17.7708 4.014L19.6068 2.574H20.3988V9ZM24.7392 5.013C25.3752 5.013 25.8882 5.178 26.2782 5.508C26.6682 5.838 26.8632 6.309 26.8632 6.921C26.8632 7.593 26.6502 8.124 26.2242 8.514C25.7982 8.898 25.1952 9.09 24.4152 9.09C24.0792 9.09 23.7642 9.06 23.4702 9C23.1822 8.94 22.9362 8.853 22.7322 8.739V7.866C22.9482 7.992 23.2092 8.094 23.5152 8.172C23.8272 8.25 24.1242 8.289 24.4062 8.289C24.8562 8.289 25.2162 8.187 25.4862 7.983C25.7562 7.773 25.8912 7.449 25.8912 7.011C25.8912 6.621 25.7682 6.324 25.5222 6.12C25.2822 5.91 24.9012 5.805 24.3792 5.805C24.2052 5.805 24.0162 5.82 23.8122 5.85C23.6082 5.88 23.4432 5.91 23.3172 5.94L22.8762 5.679L23.1192 2.574H26.4222V3.42H23.9472L23.8032 5.103C23.9052 5.085 24.0342 5.067 24.1902 5.049C24.3462 5.025 24.5292 5.013 24.7392 5.013ZM30.7965 4.482C32.1555 4.356 33.3885 3.825 33.8205 2.997C34.2615 3.825 35.4855 4.347 36.8445 4.482L37.0785 3.915C35.6745 3.807 34.3965 3.222 34.3065 2.421H36.7995V1.845H30.8415V2.421H33.3345C33.2445 3.222 31.9575 3.807 30.5535 3.915L30.7965 4.482ZM33.8115 9.207C32.7405 9.207 32.1465 9.018 32.1465 8.658C32.1465 8.28 32.7405 8.1 33.8115 8.1C34.8825 8.1 35.4855 8.28 35.4855 8.658C35.4855 9.018 34.8825 9.207 33.8115 9.207ZM33.8115 7.578C32.2545 7.578 31.3905 7.947 31.3905 8.658C31.3905 9.351 32.2545 9.711 33.8115 9.711C35.3685 9.711 36.2415 9.351 36.2415 8.658C36.2415 7.947 35.3685 7.578 33.8115 7.578ZM34.1895 5.859H33.4515V6.615H30.8415V7.182H36.7905V6.615H34.1895V5.859ZM34.1805 4.941V3.978H33.4425V4.941H30.1665V5.535H37.4745V4.941H34.1805ZM42.0908 1.773C40.3447 1.773 39.2558 2.34 39.2558 3.303C39.2558 4.257 40.3447 4.824 42.0908 4.824C43.8368 4.824 44.9258 4.257 44.9258 3.303C44.9258 2.34 43.8368 1.773 42.0908 1.773ZM42.0908 2.358C43.3688 2.358 44.1698 2.709 44.1698 3.303C44.1698 3.897 43.3688 4.248 42.0908 4.248C40.8128 4.248 40.0118 3.897 40.0118 3.303C40.0118 2.709 40.8128 2.358 42.0908 2.358ZM39.3458 6.903V9.558H44.8538V6.903H39.3458ZM44.1338 7.488V8.964H40.0658V7.488H44.1338ZM38.4458 5.517V6.111H45.7448V5.517H38.4458Z" fill="#429EF0"/>
<path d="M13.743 28.778C13.743 29.474 13.668 30.068 13.518 30.56C13.374 31.052 13.143 31.43 12.825 31.694C12.507 31.958 12.087 32.09 11.565 32.09C10.827 32.09 10.281 31.799 9.927 31.217C9.579 30.629 9.405 29.816 9.405 28.778C9.405 28.088 9.474 27.497 9.612 27.005C9.756 26.507 9.987 26.129 10.305 25.871C10.623 25.607 11.043 25.475 11.565 25.475C12.297 25.475 12.843 25.766 13.203 26.348C13.563 26.924 13.743 27.734 13.743 28.778ZM10.359 28.778C10.359 29.618 10.449 30.248 10.629 30.668C10.809 31.082 11.121 31.289 11.565 31.289C12.003 31.289 12.315 31.082 12.501 30.668C12.687 30.254 12.78 29.624 12.78 28.778C12.78 27.944 12.687 27.32 12.501 26.906C12.315 26.486 12.003 26.276 11.565 26.276C11.121 26.276 10.809 26.486 10.629 26.906C10.449 27.32 10.359 27.944 10.359 28.778ZM14.4834 29.993V29.183H16.7154V29.993H14.4834ZM21.5328 27.059C21.5328 27.497 21.4068 27.845 21.1548 28.103C20.9088 28.361 20.5878 28.532 20.1918 28.616V28.652C20.7018 28.712 21.0858 28.874 21.3438 29.138C21.6018 29.396 21.7308 29.738 21.7308 30.164C21.7308 30.536 21.6408 30.869 21.4608 31.163C21.2868 31.451 21.0138 31.679 20.6418 31.847C20.2758 32.009 19.8048 32.09 19.2288 32.09C18.8868 32.09 18.5688 32.063 18.2748 32.009C17.9808 31.955 17.7018 31.865 17.4378 31.739V30.875C17.7078 31.013 17.9958 31.118 18.3018 31.19C18.6138 31.262 18.9108 31.298 19.1928 31.298C19.7388 31.298 20.1318 31.196 20.3718 30.992C20.6118 30.782 20.7318 30.491 20.7318 30.119C20.7318 29.759 20.5878 29.495 20.2998 29.327C20.0118 29.159 19.5798 29.075 19.0038 29.075H18.4188V28.292H19.0128C19.5588 28.292 19.9548 28.19 20.2008 27.986C20.4468 27.782 20.5698 27.515 20.5698 27.185C20.5698 26.897 20.4738 26.675 20.2818 26.519C20.0958 26.357 19.8258 26.276 19.4718 26.276C19.1418 26.276 18.8538 26.327 18.6078 26.429C18.3678 26.531 18.1428 26.654 17.9328 26.798L17.4648 26.141C17.6988 25.961 17.9838 25.808 18.3198 25.682C18.6618 25.55 19.0548 25.484 19.4988 25.484C20.1648 25.484 20.6688 25.631 21.0108 25.925C21.3588 26.213 21.5328 26.591 21.5328 27.059ZM26.9442 28.778C26.9442 29.474 26.8692 30.068 26.7192 30.56C26.5752 31.052 26.3442 31.43 26.0262 31.694C25.7082 31.958 25.2882 32.09 24.7662 32.09C24.0282 32.09 23.4822 31.799 23.1282 31.217C22.7802 30.629 22.6062 29.816 22.6062 28.778C22.6062 28.088 22.6752 27.497 22.8132 27.005C22.9572 26.507 23.1882 26.129 23.5062 25.871C23.8242 25.607 24.2442 25.475 24.7662 25.475C25.4982 25.475 26.0442 25.766 26.4042 26.348C26.7642 26.924 26.9442 27.734 26.9442 28.778ZM23.5602 28.778C23.5602 29.618 23.6502 30.248 23.8302 30.668C24.0102 31.082 24.3222 31.289 24.7662 31.289C25.2042 31.289 25.5162 31.082 25.7022 30.668C25.8882 30.254 25.9812 29.624 25.9812 28.778C25.9812 27.944 25.8882 27.32 25.7022 26.906C25.5162 26.486 25.2042 26.276 24.7662 26.276C24.3222 26.276 24.0102 26.486 23.8302 26.906C23.6502 27.32 23.5602 27.944 23.5602 28.778ZM30.7965 27.482C32.1555 27.356 33.3885 26.825 33.8205 25.997C34.2615 26.825 35.4855 27.347 36.8445 27.482L37.0785 26.915C35.6745 26.807 34.3965 26.222 34.3065 25.421H36.7995V24.845H30.8415V25.421H33.3345C33.2445 26.222 31.9575 26.807 30.5535 26.915L30.7965 27.482ZM33.8115 32.207C32.7405 32.207 32.1465 32.018 32.1465 31.658C32.1465 31.28 32.7405 31.1 33.8115 31.1C34.8825 31.1 35.4855 31.28 35.4855 31.658C35.4855 32.018 34.8825 32.207 33.8115 32.207ZM33.8115 30.578C32.2545 30.578 31.3905 30.947 31.3905 31.658C31.3905 32.351 32.2545 32.711 33.8115 32.711C35.3685 32.711 36.2415 32.351 36.2415 31.658C36.2415 30.947 35.3685 30.578 33.8115 30.578ZM34.1895 28.859H33.4515V29.615H30.8415V30.182H36.7905V29.615H34.1895V28.859ZM34.1805 27.941V26.978H33.4425V27.941H30.1665V28.535H37.4745V27.941H34.1805ZM42.0908 24.773C40.3447 24.773 39.2558 25.34 39.2558 26.303C39.2558 27.257 40.3447 27.824 42.0908 27.824C43.8368 27.824 44.9258 27.257 44.9258 26.303C44.9258 25.34 43.8368 24.773 42.0908 24.773ZM42.0908 25.358C43.3688 25.358 44.1698 25.709 44.1698 26.303C44.1698 26.897 43.3688 27.248 42.0908 27.248C40.8128 27.248 40.0118 26.897 40.0118 26.303C40.0118 25.709 40.8128 25.358 42.0908 25.358ZM39.3458 29.903V32.558H44.8538V29.903H39.3458ZM44.1338 30.488V31.964H40.0658V30.488H44.1338ZM38.4458 28.517V29.111H45.7448V28.517H38.4458Z" fill="#429EF0"/>
<path d="M71.348 9H70.403V4.734C70.403 4.512 70.406 4.308 70.412 4.122C70.418 3.936 70.427 3.756 70.439 3.582C70.361 3.66 70.28 3.738 70.196 3.816C70.112 3.888 70.016 3.969 69.908 4.059L69.206 4.626L68.72 4.014L70.556 2.574H71.348V9ZM73.5914 6.264C73.5914 5.892 73.6154 5.526 73.6634 5.166C73.7174 4.8 73.8074 4.458 73.9334 4.14C74.0654 3.816 74.2454 3.531 74.4734 3.285C74.7014 3.039 74.9894 2.847 75.3374 2.709C75.6914 2.565 76.1174 2.493 76.6154 2.493C76.7414 2.493 76.8824 2.499 77.0384 2.511C77.1944 2.523 77.3264 2.541 77.4344 2.565V3.366C77.2064 3.294 76.9484 3.258 76.6604 3.258C76.2464 3.258 75.9044 3.321 75.6344 3.447C75.3644 3.573 75.1514 3.747 74.9954 3.969C74.8394 4.191 74.7254 4.449 74.6534 4.743C74.5814 5.037 74.5364 5.352 74.5184 5.688H74.5724C74.7044 5.472 74.8904 5.292 75.1304 5.148C75.3704 5.004 75.6794 4.932 76.0574 4.932C76.6154 4.932 77.0624 5.106 77.3984 5.454C77.7404 5.796 77.9114 6.282 77.9114 6.912C77.9114 7.59 77.7224 8.124 77.3444 8.514C76.9724 8.898 76.4654 9.09 75.8234 9.09C75.4094 9.09 75.0314 8.988 74.6894 8.784C74.3534 8.58 74.0864 8.271 73.8884 7.857C73.6904 7.437 73.5914 6.906 73.5914 6.264ZM75.8144 8.298C76.1564 8.298 76.4354 8.187 76.6514 7.965C76.8674 7.737 76.9754 7.386 76.9754 6.912C76.9754 6.534 76.8794 6.234 76.6874 6.012C76.5014 5.79 76.2194 5.679 75.8414 5.679C75.5834 5.679 75.3584 5.733 75.1664 5.841C74.9744 5.949 74.8244 6.087 74.7164 6.255C74.6084 6.423 74.5544 6.594 74.5544 6.768C74.5544 7.014 74.6024 7.254 74.6984 7.488C74.7944 7.722 74.9354 7.917 75.1214 8.073C75.3074 8.223 75.5384 8.298 75.8144 8.298ZM78.6338 6.993V6.183H80.8658V6.993H78.6338ZM85.6832 4.059C85.6832 4.497 85.5572 4.845 85.3052 5.103C85.0592 5.361 84.7382 5.532 84.3422 5.616V5.652C84.8522 5.712 85.2362 5.874 85.4942 6.138C85.7522 6.396 85.8812 6.738 85.8812 7.164C85.8812 7.536 85.7912 7.869 85.6112 8.163C85.4372 8.451 85.1642 8.679 84.7922 8.847C84.4262 9.009 83.9552 9.09 83.3792 9.09C83.0372 9.09 82.7192 9.063 82.4252 9.009C82.1312 8.955 81.8522 8.865 81.5882 8.739V7.875C81.8582 8.013 82.1462 8.118 82.4522 8.19C82.7642 8.262 83.0612 8.298 83.3432 8.298C83.8892 8.298 84.2822 8.196 84.5222 7.992C84.7622 7.782 84.8822 7.491 84.8822 7.119C84.8822 6.759 84.7382 6.495 84.4502 6.327C84.1622 6.159 83.7302 6.075 83.1542 6.075H82.5692V5.292H83.1632C83.7092 5.292 84.1052 5.19 84.3512 4.986C84.5972 4.782 84.7202 4.515 84.7202 4.185C84.7202 3.897 84.6242 3.675 84.4322 3.519C84.2462 3.357 83.9762 3.276 83.6222 3.276C83.2922 3.276 83.0042 3.327 82.7582 3.429C82.5182 3.531 82.2932 3.654 82.0832 3.798L81.6152 3.141C81.8492 2.961 82.1342 2.808 82.4702 2.682C82.8122 2.55 83.2052 2.484 83.6492 2.484C84.3152 2.484 84.8192 2.631 85.1612 2.925C85.5092 3.213 85.6832 3.591 85.6832 4.059ZM88.8896 5.013C89.5256 5.013 90.0386 5.178 90.4286 5.508C90.8186 5.838 91.0136 6.309 91.0136 6.921C91.0136 7.593 90.8006 8.124 90.3746 8.514C89.9486 8.898 89.3456 9.09 88.5656 9.09C88.2296 9.09 87.9146 9.06 87.6206 9C87.3326 8.94 87.0866 8.853 86.8826 8.739V7.866C87.0986 7.992 87.3596 8.094 87.6656 8.172C87.9776 8.25 88.2746 8.289 88.5566 8.289C89.0066 8.289 89.3666 8.187 89.6366 7.983C89.9066 7.773 90.0416 7.449 90.0416 7.011C90.0416 6.621 89.9186 6.324 89.6726 6.12C89.4326 5.91 89.0516 5.805 88.5296 5.805C88.3556 5.805 88.1666 5.82 87.9626 5.85C87.7586 5.88 87.5936 5.91 87.4676 5.94L87.0266 5.679L87.2696 2.574H90.5726V3.42H88.0976L87.9536 5.103C88.0556 5.085 88.1846 5.067 88.3406 5.049C88.4966 5.025 88.6796 5.013 88.8896 5.013ZM95.9098 4.212H100.032V5.697H95.9098V4.212ZM98.3398 8.028V6.291H100.752V2.169H100.032V3.609H95.9098V2.169H95.1808V6.291H97.5928V8.028H94.3168V8.631H101.634V8.028H98.3398ZM106.241 9.099C104.945 9.099 104.216 8.847 104.216 8.361C104.216 7.884 104.945 7.623 106.241 7.623C107.546 7.623 108.266 7.884 108.266 8.361C108.266 8.847 107.546 9.099 106.241 9.099ZM106.241 7.074C104.486 7.074 103.478 7.524 103.478 8.361C103.478 9.207 104.486 9.657 106.241 9.657C107.996 9.657 109.004 9.207 109.004 8.361C109.004 7.524 107.996 7.074 106.241 7.074ZM106.61 5.868V5.076H109.04V4.5H104.288V3.708H108.779V3.15H104.288V2.403H108.995V1.827H103.55V5.076H105.872V5.868H102.587V6.462H109.895V5.868H106.61Z" fill="#30D966"/>
<path d="M72.482 27.059C72.482 27.497 72.356 27.845 72.104 28.103C71.858 28.361 71.537 28.532 71.141 28.616V28.652C71.651 28.712 72.035 28.874 72.293 29.138C72.551 29.396 72.68 29.738 72.68 30.164C72.68 30.536 72.59 30.869 72.41 31.163C72.236 31.451 71.963 31.679 71.591 31.847C71.225 32.009 70.754 32.09 70.178 32.09C69.836 32.09 69.518 32.063 69.224 32.009C68.93 31.955 68.651 31.865 68.387 31.739V30.875C68.657 31.013 68.945 31.118 69.251 31.19C69.563 31.262 69.86 31.298 70.142 31.298C70.688 31.298 71.081 31.196 71.321 30.992C71.561 30.782 71.681 30.491 71.681 30.119C71.681 29.759 71.537 29.495 71.249 29.327C70.961 29.159 70.529 29.075 69.953 29.075H69.368V28.292H69.962C70.508 28.292 70.904 28.19 71.15 27.986C71.396 27.782 71.519 27.515 71.519 27.185C71.519 26.897 71.423 26.675 71.231 26.519C71.045 26.357 70.775 26.276 70.421 26.276C70.091 26.276 69.803 26.327 69.557 26.429C69.317 26.531 69.092 26.654 68.882 26.798L68.414 26.141C68.648 25.961 68.933 25.808 69.269 25.682C69.611 25.55 70.004 25.484 70.448 25.484C71.114 25.484 71.618 25.631 71.96 25.925C72.308 26.213 72.482 26.591 72.482 27.059ZM76.4984 32H75.5534V27.734C75.5534 27.512 75.5564 27.308 75.5624 27.122C75.5684 26.936 75.5774 26.756 75.5894 26.582C75.5114 26.66 75.4304 26.738 75.3464 26.816C75.2624 26.888 75.1664 26.969 75.0584 27.059L74.3564 27.626L73.8704 27.014L75.7064 25.574H76.4984V32ZM78.6338 29.993V29.183H80.8658V29.993H78.6338ZM83.7662 25.484C84.1442 25.484 84.4802 25.544 84.7742 25.664C85.0682 25.778 85.2992 25.949 85.4672 26.177C85.6412 26.405 85.7282 26.69 85.7282 27.032C85.7282 27.416 85.6112 27.731 85.3772 27.977C85.1432 28.223 84.8612 28.43 84.5312 28.598C84.7832 28.724 85.0142 28.868 85.2242 29.03C85.4402 29.186 85.6112 29.372 85.7372 29.588C85.8692 29.798 85.9352 30.047 85.9352 30.335C85.9352 30.695 85.8452 31.007 85.6652 31.271C85.4912 31.529 85.2422 31.73 84.9182 31.874C84.5942 32.018 84.2162 32.09 83.7842 32.09C83.0882 32.09 82.5512 31.94 82.1732 31.64C81.7952 31.334 81.6062 30.908 81.6062 30.362C81.6062 30.074 81.6662 29.822 81.7862 29.606C81.9062 29.384 82.0652 29.195 82.2632 29.039C82.4612 28.883 82.6772 28.751 82.9112 28.643C82.5992 28.463 82.3382 28.247 82.1282 27.995C81.9182 27.737 81.8132 27.413 81.8132 27.023C81.8132 26.687 81.9002 26.408 82.0742 26.186C82.2482 25.958 82.4822 25.784 82.7762 25.664C83.0702 25.544 83.4002 25.484 83.7662 25.484ZM83.7572 26.231C83.4572 26.231 83.2112 26.306 83.0192 26.456C82.8272 26.6 82.7312 26.807 82.7312 27.077C82.7312 27.377 82.8332 27.611 83.0372 27.779C83.2472 27.941 83.4992 28.088 83.7932 28.22C84.0752 28.1 84.3122 27.956 84.5042 27.788C84.7022 27.614 84.8012 27.377 84.8012 27.077C84.8012 26.807 84.7052 26.6 84.5132 26.456C84.3212 26.306 84.0692 26.231 83.7572 26.231ZM82.5242 30.344C82.5242 30.632 82.6262 30.872 82.8302 31.064C83.0342 31.256 83.3462 31.352 83.7662 31.352C84.1742 31.352 84.4832 31.259 84.6932 31.073C84.9092 30.881 85.0172 30.635 85.0172 30.335C85.0172 30.041 84.9002 29.798 84.6662 29.606C84.4382 29.414 84.1472 29.243 83.7932 29.093L83.6582 29.039C83.2922 29.195 83.0102 29.378 82.8122 29.588C82.6202 29.792 82.5242 30.044 82.5242 30.344ZM91.0946 28.778C91.0946 29.474 91.0196 30.068 90.8696 30.56C90.7256 31.052 90.4946 31.43 90.1766 31.694C89.8586 31.958 89.4386 32.09 88.9166 32.09C88.1786 32.09 87.6326 31.799 87.2786 31.217C86.9306 30.629 86.7566 29.816 86.7566 28.778C86.7566 28.088 86.8256 27.497 86.9636 27.005C87.1076 26.507 87.3386 26.129 87.6566 25.871C87.9746 25.607 88.3946 25.475 88.9166 25.475C89.6486 25.475 90.1946 25.766 90.5546 26.348C90.9146 26.924 91.0946 27.734 91.0946 28.778ZM87.7106 28.778C87.7106 29.618 87.8006 30.248 87.9806 30.668C88.1606 31.082 88.4726 31.289 88.9166 31.289C89.3546 31.289 89.6666 31.082 89.8526 30.668C90.0386 30.254 90.1316 29.624 90.1316 28.778C90.1316 27.944 90.0386 27.32 89.8526 26.906C89.6666 26.486 89.3546 26.276 88.9166 26.276C88.4726 26.276 88.1606 26.486 87.9806 26.906C87.8006 27.32 87.7106 27.944 87.7106 28.778ZM95.9098 27.212H100.032V28.697H95.9098V27.212ZM98.3398 31.028V29.291H100.752V25.169H100.032V26.609H95.9098V25.169H95.1808V29.291H97.5928V31.028H94.3168V31.631H101.634V31.028H98.3398ZM106.241 32.099C104.945 32.099 104.216 31.847 104.216 31.361C104.216 30.884 104.945 30.623 106.241 30.623C107.546 30.623 108.266 30.884 108.266 31.361C108.266 31.847 107.546 32.099 106.241 32.099ZM106.241 30.074C104.486 30.074 103.478 30.524 103.478 31.361C103.478 32.207 104.486 32.657 106.241 32.657C107.996 32.657 109.004 32.207 109.004 31.361C109.004 30.524 107.996 30.074 106.241 30.074ZM106.61 28.868V28.076H109.04V27.5H104.288V26.708H108.779V26.15H104.288V25.403H108.995V24.827H103.55V28.076H105.872V28.868H102.587V29.462H109.895V28.868H106.61Z" fill="#30D966"/>
<path d="M131.482 4.059C131.482 4.497 131.356 4.845 131.104 5.103C130.858 5.361 130.537 5.532 130.141 5.616V5.652C130.651 5.712 131.035 5.874 131.293 6.138C131.551 6.396 131.68 6.738 131.68 7.164C131.68 7.536 131.59 7.869 131.41 8.163C131.236 8.451 130.963 8.679 130.591 8.847C130.225 9.009 129.754 9.09 129.178 9.09C128.836 9.09 128.518 9.063 128.224 9.009C127.93 8.955 127.651 8.865 127.387 8.739V7.875C127.657 8.013 127.945 8.118 128.251 8.19C128.563 8.262 128.86 8.298 129.142 8.298C129.688 8.298 130.081 8.196 130.321 7.992C130.561 7.782 130.681 7.491 130.681 7.119C130.681 6.759 130.537 6.495 130.249 6.327C129.961 6.159 129.529 6.075 128.953 6.075H128.368V5.292H128.962C129.508 5.292 129.904 5.19 130.15 4.986C130.396 4.782 130.519 4.515 130.519 4.185C130.519 3.897 130.423 3.675 130.231 3.519C130.045 3.357 129.775 3.276 129.421 3.276C129.091 3.276 128.803 3.327 128.557 3.429C128.317 3.531 128.092 3.654 127.882 3.798L127.414 3.141C127.648 2.961 127.933 2.808 128.269 2.682C128.611 2.55 129.004 2.484 129.448 2.484C130.114 2.484 130.618 2.631 130.96 2.925C131.308 3.213 131.482 3.591 131.482 4.059ZM132.591 6.264C132.591 5.892 132.615 5.526 132.663 5.166C132.717 4.8 132.807 4.458 132.933 4.14C133.065 3.816 133.245 3.531 133.473 3.285C133.701 3.039 133.989 2.847 134.337 2.709C134.691 2.565 135.117 2.493 135.615 2.493C135.741 2.493 135.882 2.499 136.038 2.511C136.194 2.523 136.326 2.541 136.434 2.565V3.366C136.206 3.294 135.948 3.258 135.66 3.258C135.246 3.258 134.904 3.321 134.634 3.447C134.364 3.573 134.151 3.747 133.995 3.969C133.839 4.191 133.725 4.449 133.653 4.743C133.581 5.037 133.536 5.352 133.518 5.688H133.572C133.704 5.472 133.89 5.292 134.13 5.148C134.37 5.004 134.679 4.932 135.057 4.932C135.615 4.932 136.062 5.106 136.398 5.454C136.74 5.796 136.911 6.282 136.911 6.912C136.911 7.59 136.722 8.124 136.344 8.514C135.972 8.898 135.465 9.09 134.823 9.09C134.409 9.09 134.031 8.988 133.689 8.784C133.353 8.58 133.086 8.271 132.888 7.857C132.69 7.437 132.591 6.906 132.591 6.264ZM134.814 8.298C135.156 8.298 135.435 8.187 135.651 7.965C135.867 7.737 135.975 7.386 135.975 6.912C135.975 6.534 135.879 6.234 135.687 6.012C135.501 5.79 135.219 5.679 134.841 5.679C134.583 5.679 134.358 5.733 134.166 5.841C133.974 5.949 133.824 6.087 133.716 6.255C133.608 6.423 133.554 6.594 133.554 6.768C133.554 7.014 133.602 7.254 133.698 7.488C133.794 7.722 133.935 7.917 134.121 8.073C134.307 8.223 134.538 8.298 134.814 8.298ZM137.634 6.993V6.183H139.866V6.993H137.634ZM141.362 9L143.927 3.42H140.552V2.574H144.953V3.258L142.397 9H141.362ZM147.89 5.013C148.526 5.013 149.039 5.178 149.429 5.508C149.819 5.838 150.014 6.309 150.014 6.921C150.014 7.593 149.801 8.124 149.375 8.514C148.949 8.898 148.346 9.09 147.566 9.09C147.23 9.09 146.915 9.06 146.621 9C146.333 8.94 146.087 8.853 145.883 8.739V7.866C146.099 7.992 146.36 8.094 146.666 8.172C146.978 8.25 147.275 8.289 147.557 8.289C148.007 8.289 148.367 8.187 148.637 7.983C148.907 7.773 149.042 7.449 149.042 7.011C149.042 6.621 148.919 6.324 148.673 6.12C148.433 5.91 148.052 5.805 147.53 5.805C147.356 5.805 147.167 5.82 146.963 5.85C146.759 5.88 146.594 5.91 146.468 5.94L146.027 5.679L146.27 2.574H149.573V3.42H147.098L146.954 5.103C147.056 5.085 147.185 5.067 147.341 5.049C147.497 5.025 147.68 5.013 147.89 5.013ZM154.37 2.376H153.641V7.623H154.28C155.513 7.623 156.746 7.533 158.123 7.254L158.033 6.642C156.728 6.903 155.531 7.002 154.37 7.002V2.376ZM160.823 4.815H159.527V1.593H158.789V9.666H159.527V5.427H160.823V4.815ZM162.271 1.782V4.86H164.944V1.782H164.242V2.718H162.973V1.782H162.271ZM162.973 3.294H164.242V4.266H162.973V3.294ZM165.556 1.782V4.86H168.229V1.782H167.527V2.718H166.258V1.782H165.556ZM166.258 3.294H167.527V4.266H166.258V3.294ZM161.596 5.616V6.219H168.895V5.616H161.596ZM162.487 7.02V9.558H167.995V7.02H162.487ZM167.275 7.614V8.964H163.216V7.614H167.275Z" fill="#F58D4C"/>
<path d="M127.565 25.484C127.943 25.484 128.279 25.544 128.573 25.664C128.867 25.778 129.098 25.949 129.266 26.177C129.44 26.405 129.527 26.69 129.527 27.032C129.527 27.416 129.41 27.731 129.176 27.977C128.942 28.223 128.66 28.43 128.33 28.598C128.582 28.724 128.813 28.868 129.023 29.03C129.239 29.186 129.41 29.372 129.536 29.588C129.668 29.798 129.734 30.047 129.734 30.335C129.734 30.695 129.644 31.007 129.464 31.271C129.29 31.529 129.041 31.73 128.717 31.874C128.393 32.018 128.015 32.09 127.583 32.09C126.887 32.09 126.35 31.94 125.972 31.64C125.594 31.334 125.405 30.908 125.405 30.362C125.405 30.074 125.465 29.822 125.585 29.606C125.705 29.384 125.864 29.195 126.062 29.039C126.26 28.883 126.476 28.751 126.71 28.643C126.398 28.463 126.137 28.247 125.927 27.995C125.717 27.737 125.612 27.413 125.612 27.023C125.612 26.687 125.699 26.408 125.873 26.186C126.047 25.958 126.281 25.784 126.575 25.664C126.869 25.544 127.199 25.484 127.565 25.484ZM127.556 26.231C127.256 26.231 127.01 26.306 126.818 26.456C126.626 26.6 126.53 26.807 126.53 27.077C126.53 27.377 126.632 27.611 126.836 27.779C127.046 27.941 127.298 28.088 127.592 28.22C127.874 28.1 128.111 27.956 128.303 27.788C128.501 27.614 128.6 27.377 128.6 27.077C128.6 26.807 128.504 26.6 128.312 26.456C128.12 26.306 127.868 26.231 127.556 26.231ZM126.323 30.344C126.323 30.632 126.425 30.872 126.629 31.064C126.833 31.256 127.145 31.352 127.565 31.352C127.973 31.352 128.282 31.259 128.492 31.073C128.708 30.881 128.816 30.635 128.816 30.335C128.816 30.041 128.699 29.798 128.465 29.606C128.237 29.414 127.946 29.243 127.592 29.093L127.457 29.039C127.091 29.195 126.809 29.378 126.611 29.588C126.419 29.792 126.323 30.044 126.323 30.344ZM133.498 32H132.553V27.734C132.553 27.512 132.556 27.308 132.562 27.122C132.568 26.936 132.577 26.756 132.589 26.582C132.511 26.66 132.43 26.738 132.346 26.816C132.262 26.888 132.166 26.969 132.058 27.059L131.356 27.626L130.87 27.014L132.706 25.574H133.498V32ZM135.634 29.993V29.183H137.866V29.993H135.634ZM141.549 32H140.604V27.734C140.604 27.512 140.607 27.308 140.613 27.122C140.619 26.936 140.628 26.756 140.64 26.582C140.562 26.66 140.481 26.738 140.397 26.816C140.313 26.888 140.217 26.969 140.109 27.059L139.407 27.626L138.921 27.014L140.757 25.574H141.549V32ZM145.89 28.013C146.526 28.013 147.039 28.178 147.429 28.508C147.819 28.838 148.014 29.309 148.014 29.921C148.014 30.593 147.801 31.124 147.375 31.514C146.949 31.898 146.346 32.09 145.566 32.09C145.23 32.09 144.915 32.06 144.621 32C144.333 31.94 144.087 31.853 143.883 31.739V30.866C144.099 30.992 144.36 31.094 144.666 31.172C144.978 31.25 145.275 31.289 145.557 31.289C146.007 31.289 146.367 31.187 146.637 30.983C146.907 30.773 147.042 30.449 147.042 30.011C147.042 29.621 146.919 29.324 146.673 29.12C146.433 28.91 146.052 28.805 145.53 28.805C145.356 28.805 145.167 28.82 144.963 28.85C144.759 28.88 144.594 28.91 144.468 28.94L144.027 28.679L144.27 25.574H147.573V26.42H145.098L144.954 28.103C145.056 28.085 145.185 28.067 145.341 28.049C145.497 28.025 145.68 28.013 145.89 28.013ZM153.245 28.778C153.245 29.474 153.17 30.068 153.02 30.56C152.876 31.052 152.645 31.43 152.327 31.694C152.009 31.958 151.589 32.09 151.067 32.09C150.329 32.09 149.783 31.799 149.429 31.217C149.081 30.629 148.907 29.816 148.907 28.778C148.907 28.088 148.976 27.497 149.114 27.005C149.258 26.507 149.489 26.129 149.807 25.871C150.125 25.607 150.545 25.475 151.067 25.475C151.799 25.475 152.345 25.766 152.705 26.348C153.065 26.924 153.245 27.734 153.245 28.778ZM149.861 28.778C149.861 29.618 149.951 30.248 150.131 30.668C150.311 31.082 150.623 31.289 151.067 31.289C151.505 31.289 151.817 31.082 152.003 30.668C152.189 30.254 152.282 29.624 152.282 28.778C152.282 27.944 152.189 27.32 152.003 26.906C151.817 26.486 151.505 26.276 151.067 26.276C150.623 26.276 150.311 26.486 150.131 26.906C149.951 27.32 149.861 27.944 149.861 28.778ZM157.52 25.376H156.791V30.623H157.43C158.663 30.623 159.896 30.533 161.273 30.254L161.183 29.642C159.878 29.903 158.681 30.002 157.52 30.002V25.376ZM163.973 27.815H162.677V24.593H161.939V32.666H162.677V28.427H163.973V27.815ZM165.422 24.782V27.86H168.095V24.782H167.393V25.718H166.124V24.782H165.422ZM166.124 26.294H167.393V27.266H166.124V26.294ZM168.707 24.782V27.86H171.38V24.782H170.678V25.718H169.409V24.782H168.707ZM169.409 26.294H170.678V27.266H169.409V26.294ZM164.747 28.616V29.219H172.046V28.616H164.747ZM165.638 30.02V32.558H171.146V30.02H165.638ZM170.426 30.614V31.964H166.367V30.614H170.426Z" fill="#F58D4C"/>
<path d="M182.161 9L184.726 3.42H181.351V2.574H185.752V3.258L183.196 9H182.161ZM186.591 6.264C186.591 5.892 186.615 5.526 186.663 5.166C186.717 4.8 186.807 4.458 186.933 4.14C187.065 3.816 187.245 3.531 187.473 3.285C187.701 3.039 187.989 2.847 188.337 2.709C188.691 2.565 189.117 2.493 189.615 2.493C189.741 2.493 189.882 2.499 190.038 2.511C190.194 2.523 190.326 2.541 190.434 2.565V3.366C190.206 3.294 189.948 3.258 189.66 3.258C189.246 3.258 188.904 3.321 188.634 3.447C188.364 3.573 188.151 3.747 187.995 3.969C187.839 4.191 187.725 4.449 187.653 4.743C187.581 5.037 187.536 5.352 187.518 5.688H187.572C187.704 5.472 187.89 5.292 188.13 5.148C188.37 5.004 188.679 4.932 189.057 4.932C189.615 4.932 190.062 5.106 190.398 5.454C190.74 5.796 190.911 6.282 190.911 6.912C190.911 7.59 190.722 8.124 190.344 8.514C189.972 8.898 189.465 9.09 188.823 9.09C188.409 9.09 188.031 8.988 187.689 8.784C187.353 8.58 187.086 8.271 186.888 7.857C186.69 7.437 186.591 6.906 186.591 6.264ZM188.814 8.298C189.156 8.298 189.435 8.187 189.651 7.965C189.867 7.737 189.975 7.386 189.975 6.912C189.975 6.534 189.879 6.234 189.687 6.012C189.501 5.79 189.219 5.679 188.841 5.679C188.583 5.679 188.358 5.733 188.166 5.841C187.974 5.949 187.824 6.087 187.716 6.255C187.608 6.423 187.554 6.594 187.554 6.768C187.554 7.014 187.602 7.254 187.698 7.488C187.794 7.722 187.935 7.917 188.121 8.073C188.307 8.223 188.538 8.298 188.814 8.298ZM191.634 6.993V6.183H193.866V6.993H191.634ZM197.997 3.114H199.689V6.912H197.997V3.114ZM197.304 7.497H200.373V2.529H197.304V7.497ZM203.172 1.593V4.788H202.083V1.773H201.39V9.261H202.083V5.391H203.172V9.657H203.874V1.593H203.172ZM208.931 2.511C210.164 2.511 211.001 2.97 211.001 3.681C211.001 4.401 210.164 4.86 208.931 4.86C207.707 4.86 206.87 4.401 206.87 3.681C206.87 2.97 207.707 2.511 208.931 2.511ZM208.931 5.454C210.614 5.454 211.757 4.77 211.757 3.681C211.757 2.601 210.614 1.917 208.931 1.917C207.257 1.917 206.114 2.601 206.114 3.681C206.114 4.77 207.257 5.454 208.931 5.454ZM212.603 6.219H205.295V6.831H208.562V9.675H209.3V6.831H212.603V6.219ZM214.628 2.376H213.899V7.623H214.538C215.771 7.623 217.004 7.533 218.381 7.254L218.291 6.642C216.986 6.903 215.789 7.002 214.628 7.002V2.376ZM221.081 4.815H219.785V1.593H219.047V9.666H219.785V5.427H221.081V4.815ZM222.529 1.782V4.86H225.202V1.782H224.5V2.718H223.231V1.782H222.529ZM223.231 3.294H224.5V4.266H223.231V3.294ZM225.814 1.782V4.86H228.487V1.782H227.785V2.718H226.516V1.782H225.814ZM226.516 3.294H227.785V4.266H226.516V3.294ZM221.854 5.616V6.219H229.153V5.616H221.854ZM222.745 7.02V9.558H228.253V7.02H222.745ZM227.533 7.614V8.964H223.474V7.614H227.533Z" fill="#F04735"/>
<path d="M181.348 32H180.403V27.734C180.403 27.512 180.406 27.308 180.412 27.122C180.418 26.936 180.427 26.756 180.439 26.582C180.361 26.66 180.28 26.738 180.196 26.816C180.112 26.888 180.016 26.969 179.908 27.059L179.206 27.626L178.72 27.014L180.556 25.574H181.348V32ZM185.688 28.013C186.324 28.013 186.837 28.178 187.227 28.508C187.617 28.838 187.812 29.309 187.812 29.921C187.812 30.593 187.599 31.124 187.173 31.514C186.747 31.898 186.144 32.09 185.364 32.09C185.028 32.09 184.713 32.06 184.419 32C184.131 31.94 183.885 31.853 183.681 31.739V30.866C183.897 30.992 184.158 31.094 184.464 31.172C184.776 31.25 185.073 31.289 185.355 31.289C185.805 31.289 186.165 31.187 186.435 30.983C186.705 30.773 186.84 30.449 186.84 30.011C186.84 29.621 186.717 29.324 186.471 29.12C186.231 28.91 185.85 28.805 185.328 28.805C185.154 28.805 184.965 28.82 184.761 28.85C184.557 28.88 184.392 28.91 184.266 28.94L183.825 28.679L184.068 25.574H187.371V26.42H184.896L184.752 28.103C184.854 28.085 184.983 28.067 185.139 28.049C185.295 28.025 185.478 28.013 185.688 28.013ZM191.649 32H190.704V27.734C190.704 27.512 190.707 27.308 190.713 27.122C190.719 26.936 190.728 26.756 190.74 26.582C190.662 26.66 190.581 26.738 190.497 26.816C190.413 26.888 190.317 26.969 190.209 27.059L189.507 27.626L189.021 27.014L190.857 25.574H191.649V32ZM193.784 29.993V29.183H196.016V29.993H193.784ZM200.147 26.114H201.839V29.912H200.147V26.114ZM199.454 30.497H202.523V25.529H199.454V30.497ZM205.322 24.593V27.788H204.233V24.773H203.54V32.261H204.233V28.391H205.322V32.657H206.024V24.593H205.322ZM211.082 25.511C212.315 25.511 213.152 25.97 213.152 26.681C213.152 27.401 212.315 27.86 211.082 27.86C209.858 27.86 209.021 27.401 209.021 26.681C209.021 25.97 209.858 25.511 211.082 25.511ZM211.082 28.454C212.765 28.454 213.908 27.77 213.908 26.681C213.908 25.601 212.765 24.917 211.082 24.917C209.408 24.917 208.265 25.601 208.265 26.681C208.265 27.77 209.408 28.454 211.082 28.454ZM214.754 29.219H207.446V29.831H210.713V32.675H211.451V29.831H214.754V29.219ZM216.778 25.376H216.049V30.623H216.688C217.921 30.623 219.154 30.533 220.531 30.254L220.441 29.642C219.136 29.903 217.939 30.002 216.778 30.002V25.376ZM223.231 27.815H221.935V24.593H221.197V32.666H221.935V28.427H223.231V27.815ZM224.679 24.782V27.86H227.352V24.782H226.65V25.718H225.381V24.782H224.679ZM225.381 26.294H226.65V27.266H225.381V26.294ZM227.964 24.782V27.86H230.637V24.782H229.935V25.718H228.666V24.782H227.964ZM228.666 26.294H229.935V27.266H228.666V26.294ZM224.004 28.616V29.219H231.303V28.616H224.004ZM224.895 30.02V32.558H230.403V30.02H224.895ZM229.683 30.614V31.964H225.624V30.614H229.683Z" fill="#F04735"/>
<path d="M0 17C0 14.7909 1.79086 13 4 13H59V21H4C1.79086 21 0 19.2091 0 17Z" fill="#85BFEF"/>
<path d="M59 13H118V21H59V13Z" fill="#87EF85"/>
<path d="M118 13H177V21H118V13Z" fill="#FE9517" fill-opacity="0.74"/>
<path d="M177 13H232C234.209 13 236 14.7909 236 17C236 19.2091 234.209 21 232 21H177V13Z" fill="#FF6C6C"/>
</svg>
