<svg width="127" height="38" viewBox="0 0 127 38" fill="none" xmlns="http://www.w3.org/2000/svg">
<path d="M1.625 23.2031C1.625 23.0156 1.73438 22.9219 1.95312 22.9219H3.96875C4.15625 22.9219 4.28646 23.026 4.35938 23.2344C5.25521 25.901 7.53646 27.2344 11.2031 27.2344C13.1198 27.2344 14.5833 26.8958 15.5938 26.2188C16.6146 25.5312 17.125 24.6823 17.125 23.6719C17.125 22.6615 16.8021 21.849 16.1562 21.2344C15.5208 20.6094 14.5208 20.1042 13.1562 19.7188L7.54688 18.125C3.92188 17.0833 2.10938 15.1094 2.10938 12.2031C2.10938 10.4115 2.86979 8.95312 4.39062 7.82812C5.92188 6.69271 7.96875 6.125 10.5312 6.125C13.0938 6.125 15.1615 6.67708 16.7344 7.78125C18.3177 8.875 19.3125 10.3802 19.7188 12.2969C19.7604 12.5573 19.651 12.6875 19.3906 12.6875H17.375C17.1875 12.6875 17.0573 12.5781 16.9844 12.3594C16.0885 9.69271 13.9583 8.35938 10.5938 8.35938C8.82292 8.35938 7.44271 8.70312 6.45312 9.39062C5.47396 10.0677 4.98438 10.9219 4.98438 11.9531C4.98438 12.974 5.30208 13.7812 5.9375 14.375C6.58333 14.9688 7.59896 15.4688 8.98438 15.875L14.5938 17.4844C18.1979 18.5052 20 20.4792 20 23.4062C20 25.2188 19.2135 26.6875 17.6406 27.8125C16.0781 28.9271 13.9323 29.4844 11.2031 29.4844C8.47396 29.4844 6.29688 28.9375 4.67188 27.8438C3.85938 27.3021 3.14583 26.6146 2.53125 25.7812C1.92708 24.9375 1.625 24.0781 1.625 23.2031ZM34.7781 29.5156C32.4552 29.5156 30.5281 28.7292 28.9969 27.1562C27.476 25.5729 26.7156 23.3281 26.7156 20.4219C26.7156 17.5052 27.476 15.276 28.9969 13.7344C30.5281 12.1823 32.5229 11.4062 34.9813 11.4062C37.45 11.4062 39.4604 12.1979 41.0125 13.7812C42.575 15.3542 43.3563 17.4427 43.3563 20.0469V20.8438C43.3563 21.2708 43.1427 21.4844 42.7156 21.4844H29.6219C29.799 23.4219 30.3719 24.8698 31.3406 25.8281C32.3094 26.7865 33.5385 27.2656 35.0281 27.2656C37.3823 27.2656 39.0906 26.3073 40.1531 24.3906C40.2781 24.1823 40.4083 24.0781 40.5438 24.0781H42.5594C42.8302 24.0781 42.9344 24.2031 42.8719 24.4531C42.4448 25.9948 41.5698 27.224 40.2469 28.1406C38.924 29.0573 37.101 29.5156 34.7781 29.5156ZM29.6219 19.2344H40.4813C40.3875 17.5573 39.8146 16.2083 38.7625 15.1875C37.7104 14.1562 36.4552 13.6406 34.9969 13.6406C33.549 13.6406 32.3354 14.1146 31.3563 15.0625C30.3771 16.0104 29.799 17.401 29.6219 19.2344ZM58.4781 29.5156C56.1552 29.5156 54.2281 28.7292 52.6969 27.1562C51.176 25.5729 50.4156 23.3281 50.4156 20.4219C50.4156 17.5052 51.176 15.276 52.6969 13.7344C54.2281 12.1823 56.2229 11.4062 58.6813 11.4062C61.15 11.4062 63.1604 12.1979 64.7125 13.7812C66.275 15.3542 67.0563 17.4427 67.0563 20.0469V20.8438C67.0563 21.2708 66.8427 21.4844 66.4156 21.4844H53.3219C53.499 23.4219 54.0719 24.8698 55.0406 25.8281C56.0094 26.7865 57.2385 27.2656 58.7281 27.2656C61.0823 27.2656 62.7906 26.3073 63.8531 24.3906C63.9781 24.1823 64.1083 24.0781 64.2438 24.0781H66.2594C66.5302 24.0781 66.6344 24.2031 66.5719 24.4531C66.1448 25.9948 65.2698 27.224 63.9469 28.1406C62.624 29.0573 60.801 29.5156 58.4781 29.5156ZM53.3219 19.2344H64.1813C64.0875 17.5573 63.5146 16.2083 62.4625 15.1875C61.4104 14.1562 60.1552 13.6406 58.6969 13.6406C57.249 13.6406 56.0354 14.1146 55.0563 15.0625C54.0771 16.0104 53.499 17.401 53.3219 19.2344ZM75.3969 28.6875V6.92188C75.3969 6.71354 75.501 6.60417 75.7094 6.59375H77.9594C78.574 6.59375 79.0531 6.91667 79.3969 7.5625L87.6469 23.2656L95.8812 7.5625C96.225 6.92708 96.7042 6.60417 97.3187 6.59375H99.5531C99.7615 6.59375 99.8708 6.70312 99.8812 6.92188V28.6875C99.8812 28.8958 99.7719 29 99.5531 29H97.3187C97.1104 29 97.001 28.8958 96.9906 28.6875V11.4062L89.6312 25.3125C89.2875 25.9479 88.8083 26.2708 88.1937 26.2812H87.0687C86.4542 26.2812 85.975 25.9583 85.6312 25.3125L78.2719 11.4062V28.6875C78.2719 28.8958 78.1677 29 77.9594 29H75.7094C75.501 29 75.3969 28.8958 75.3969 28.6875ZM116.253 29.5156C113.93 29.5156 112.003 28.7292 110.472 27.1562C108.951 25.5729 108.191 23.3281 108.191 20.4219C108.191 17.5052 108.951 15.276 110.472 13.7344C112.003 12.1823 113.998 11.4062 116.456 11.4062C118.925 11.4062 120.935 12.1979 122.488 13.7812C124.05 15.3542 124.831 17.4427 124.831 20.0469V20.8438C124.831 21.2708 124.618 21.4844 124.191 21.4844H111.097C111.274 23.4219 111.847 24.8698 112.816 25.8281C113.784 26.7865 115.014 27.2656 116.503 27.2656C118.857 27.2656 120.566 26.3073 121.628 24.3906C121.753 24.1823 121.883 24.0781 122.019 24.0781H124.034C124.305 24.0781 124.409 24.2031 124.347 24.4531C123.92 25.9948 123.045 27.224 121.722 28.1406C120.399 29.0573 118.576 29.5156 116.253 29.5156ZM111.097 19.2344H121.956C121.863 17.5573 121.29 16.2083 120.238 15.1875C119.185 14.1562 117.93 13.6406 116.472 13.6406C115.024 13.6406 113.81 14.1146 112.831 15.0625C111.852 16.0104 111.274 17.401 111.097 19.2344Z" fill="black"/>
<path d="M35.0002 1.41669C35.0002 1.41669 37.5716 3.50002 37.5716 6.00002C37.5716 7.66669 36.2859 8.08335 35.0002 8.08335C33.7145 8.08335 32.4288 7.66669 32.4288 6.00002C32.4288 3.50002 35.0002 1.41669 35.0002 1.41669Z" fill="#C3DCFF"/>
<path d="M35 1C35 1 38 3.5 38 6C38 6.83333 37.5714 8.5 35 8.5" stroke="#C3DCFF" stroke-width="1.66667" stroke-linecap="round"/>
<path d="M35 1C35 1 32 3.5 32 6C32 6.83333 32.4286 8.5 35 8.5" stroke="#C3DCFF" stroke-width="1.66667" stroke-linecap="round"/>
<path d="M59.0002 1.41669C59.0002 1.41669 61.5716 3.50002 61.5716 6.00002C61.5716 7.66669 60.2859 8.08335 59.0002 8.08335C57.7145 8.08335 56.4288 7.66669 56.4288 6.00002C56.4288 3.50002 59.0002 1.41669 59.0002 1.41669Z" fill="#ADA6FF"/>
<path d="M59 1C59 1 62 3.5 62 6C62 6.83333 61.5714 8.5 59 8.5" stroke="#ADA6FF" stroke-width="1.66667" stroke-linecap="round"/>
<path d="M59 1C59 1 56 3.5 56 6C56 6.83333 56.4286 8.5 59 8.5" stroke="#ADA6FF" stroke-width="1.66667" stroke-linecap="round"/>
<path d="M116 1.41669C116 1.41669 118.572 3.50002 118.572 6.00002C118.572 7.66669 117.286 8.08335 116 8.08335C114.714 8.08335 113.429 7.66669 113.429 6.00002C113.429 3.50002 116 1.41669 116 1.41669Z" fill="#C4FFBC"/>
<path d="M116 1C116 1 119 3.5 119 6C119 6.83333 118.571 8.5 116 8.5" stroke="#C4FFBC" stroke-width="1.66667" stroke-linecap="round"/>
<path d="M116 1C116 1 113 3.5 113 6C113 6.83333 113.429 8.5 116 8.5" stroke="#C4FFBC" stroke-width="1.66667" stroke-linecap="round"/>
</svg>
