<svg width="40" height="37" viewBox="0 0 40 37" fill="none" xmlns="http://www.w3.org/2000/svg">
<g clip-path="url(#clip0)">
<path d="M35.3503 13.2548C34.538 12.0102 33.3878 10.9799 32.012 10.2645C30.6363 9.54908 29.0818 9.17298 27.5003 9.17288H24.567C24.1618 8.62283 23.6984 8.11075 23.1837 7.64406C21.8174 6.41611 20.1429 5.51514 18.3077 5.0205C16.4725 4.52585 14.5329 4.45271 12.6596 4.80749C10.7864 5.16228 9.03694 5.93412 7.56539 7.05505C6.09384 8.17598 4.94532 9.6116 4.22096 11.2355C3.4966 12.8594 3.21863 14.6218 3.41153 16.3674C3.60443 18.113 4.26227 19.7884 5.32713 21.2459C6.39199 22.7035 7.8312 23.8985 9.51803 24.7258C11.2049 25.553 13.0876 25.9872 15.0003 25.9899H27.5003C29.9301 25.9859 32.2592 25.0987 33.9773 23.5227C35.6954 21.9466 36.6626 19.8102 36.667 17.5814C36.676 16.0549 36.22 14.5564 35.3503 13.2548Z" fill="#BBDEFB"/>
<path d="M15.0002 25.99C14.5581 25.99 14.1342 25.829 13.8217 25.5423C13.5091 25.2556 13.3335 24.8667 13.3335 24.4612V21.4036C13.3335 20.9981 13.5091 20.6092 13.8217 20.3225C14.1342 20.0358 14.5581 19.8748 15.0002 19.8748C15.4422 19.8748 15.8661 20.0358 16.1787 20.3225C16.4912 20.6092 16.6668 20.9981 16.6668 21.4036V24.4612C16.6668 24.8667 16.4912 25.2556 16.1787 25.5423C15.8661 25.829 15.4422 25.99 15.0002 25.99Z" fill="#8AC8FB"/>
<path d="M25.0002 24.4611C24.5581 24.4611 24.1342 24.3 23.8217 24.0133C23.5091 23.7266 23.3335 23.3378 23.3335 22.9323V19.8746C23.3335 19.4692 23.5091 19.0803 23.8217 18.7936C24.1342 18.5069 24.5581 18.3458 25.0002 18.3458C25.4422 18.3458 25.8661 18.5069 26.1787 18.7936C26.4912 19.0803 26.6668 19.4692 26.6668 19.8746V22.9323C26.6668 23.3378 26.4912 23.7266 26.1787 24.0133C25.8661 24.3 25.4422 24.4611 25.0002 24.4611Z" fill="#8AC8FB"/>
<path d="M20.0002 29.0476C19.5581 29.0476 19.1342 28.8865 18.8217 28.5998C18.5091 28.3131 18.3335 27.9242 18.3335 27.5187V22.9323C18.3335 22.5268 18.5091 22.1379 18.8217 21.8512C19.1342 21.5645 19.5581 21.4034 20.0002 21.4034C20.4422 21.4034 20.8661 21.5645 21.1787 21.8512C21.4912 22.1379 21.6668 22.5268 21.6668 22.9323V27.5187C21.6668 27.9242 21.4912 28.3131 21.1787 28.5998C20.8661 28.8865 20.4422 29.0476 20.0002 29.0476Z" fill="#8AC8FB"/>
<path d="M20.0002 33.6341C20.9206 33.6341 21.6668 32.9496 21.6668 32.1052C21.6668 31.2609 20.9206 30.5764 20.0002 30.5764C19.0797 30.5764 18.3335 31.2609 18.3335 32.1052C18.3335 32.9496 19.0797 33.6341 20.0002 33.6341Z" fill="#53AFFB"/>
<path d="M15.0002 30.5764C15.9206 30.5764 16.6668 29.892 16.6668 29.0476C16.6668 28.2033 15.9206 27.5188 15.0002 27.5188C14.0797 27.5188 13.3335 28.2033 13.3335 29.0476C13.3335 29.892 14.0797 30.5764 15.0002 30.5764Z" fill="#53AFFB"/>
<path d="M25.0002 29.0476C25.9206 29.0476 26.6668 28.3632 26.6668 27.5188C26.6668 26.6745 25.9206 25.99 25.0002 25.99C24.0797 25.99 23.3335 26.6745 23.3335 27.5188C23.3335 28.3632 24.0797 29.0476 25.0002 29.0476Z" fill="#53AFFB"/>
</g>
<defs>
<clipPath id="clip0">
<rect width="40" height="36.6917" fill="white"/>
</clipPath>
</defs>
</svg>
