<svg width="27" height="35" viewBox="0 0 27 35" fill="none" xmlns="http://www.w3.org/2000/svg">
<path d="M11.1548 4.43489L11.1651 4.42495L11.1751 4.41482L13.4628 2.10689C13.6412 2.27052 13.8074 2.41756 13.9611 2.54725C14.6145 3.19143 15.6888 4.36737 17.205 6.10851C18.7264 7.85561 20.0481 9.44927 21.1721 10.8905C22.3647 12.6262 23.3936 14.5157 24.2571 16.562C25.1217 18.6107 25.5 20.257 25.5 21.5403C25.5 23.6549 24.9616 25.6186 23.874 27.4581C22.7815 29.3058 21.3089 30.7709 19.4368 31.8683C17.576 32.959 15.5856 33.5 13.4392 33.5C11.3111 33.5 9.33853 32.9601 7.49471 31.8709C5.63995 30.7752 4.18345 29.3121 3.10615 27.4656C2.03239 25.6252 1.5 23.6588 1.5 21.5403C1.5 20.0806 1.9533 18.2445 2.98073 15.9931C4.01728 13.7217 5.25059 11.6067 6.68012 9.64584C8.12697 7.66128 9.61927 5.9262 11.1548 4.43489Z" stroke="#C7DEFF" stroke-width="3"/>
<path d="M2.88563 26.7051C1.80979 24.1735 2.0158 17.9188 2.0158 15H24.4462C25.7832 19.7059 24.4462 23.8235 23.1092 27.3529C22.1127 29.9836 21.1352 31.2522 19.2724 32.7513C17.4095 34.2504 15.4022 35 13.2505 35C11.1133 35 9.12046 34.2504 7.27203 32.7513C5.42361 31.2522 3.96147 29.2368 2.88563 26.7051Z" fill="#C7DEFF"/>
<path d="M5.516 19.356C6.584 19.356 7.112 20.112 7.112 21.3C7.112 22.5 6.452 23.304 5.612 23.304C4.508 23.304 3.848 22.308 3.716 20.484C4.256 19.68 4.964 19.356 5.516 19.356ZM5.612 24.156C6.98 24.156 8.132 23.004 8.132 21.3C8.132 19.464 7.184 18.54 5.696 18.54C5 18.54 4.232 18.948 3.692 19.608C3.74 16.872 4.76 15.948 5.96 15.948C6.5 15.948 7.028 16.2 7.376 16.62L7.976 15.936C7.496 15.42 6.836 15.036 5.924 15.036C4.22 15.036 2.672 16.356 2.672 19.8C2.672 22.704 3.92 24.156 5.612 24.156ZM11.9923 24.156C13.6603 24.156 14.7283 22.632 14.7283 19.572C14.7283 16.524 13.6603 15.036 11.9923 15.036C10.3123 15.036 9.24425 16.512 9.24425 19.572C9.24425 22.632 10.3123 24.156 11.9923 24.156ZM11.9923 23.28C10.9843 23.28 10.3123 22.164 10.3123 19.572C10.3123 17.004 10.9843 15.912 11.9923 15.912C12.9883 15.912 13.6603 17.004 13.6603 19.572C13.6603 22.164 12.9883 23.28 11.9923 23.28ZM17.7725 20.592C18.9845 20.592 19.7765 19.572 19.7765 17.796C19.7765 16.032 18.9845 15.036 17.7725 15.036C16.5725 15.036 15.7805 16.032 15.7805 17.796C15.7805 19.572 16.5725 20.592 17.7725 20.592ZM17.7725 19.908C17.0885 19.908 16.6085 19.2 16.6085 17.796C16.6085 16.392 17.0885 15.708 17.7725 15.708C18.4685 15.708 18.9485 16.392 18.9485 17.796C18.9485 19.2 18.4685 19.908 17.7725 19.908ZM18.0365 24.156H18.7685L23.6285 15.036H22.8845L18.0365 24.156ZM23.9045 24.156C25.1045 24.156 25.8965 23.148 25.8965 21.372C25.8965 19.608 25.1045 18.612 23.9045 18.612C22.7045 18.612 21.9005 19.608 21.9005 21.372C21.9005 23.148 22.7045 24.156 23.9045 24.156ZM23.9045 23.484C23.2085 23.484 22.7405 22.776 22.7405 21.372C22.7405 19.968 23.2085 19.284 23.9045 19.284C24.5885 19.284 25.0685 19.968 25.0685 21.372C25.0685 22.776 24.5885 23.484 23.9045 23.484Z" fill="black"/>
</svg>
