<svg width="43" height="40" viewBox="0 0 43 40" fill="none" xmlns="http://www.w3.org/2000/svg">
<path d="M21.5 28.1682C26.4475 28.1682 30.4583 24.459 30.4583 19.8834C30.4583 15.3079 26.4475 11.5986 21.5 11.5986C16.5524 11.5986 12.5416 15.3079 12.5416 19.8834C12.5416 24.459 16.5524 28.1682 21.5 28.1682Z" fill="#F8D800"/>
<path d="M21.5 9.94178C21.0249 9.94178 20.5691 9.76721 20.2331 9.45647C19.8971 9.14573 19.7084 8.72428 19.7084 8.28483V4.97092C19.7084 4.53147 19.8971 4.11001 20.2331 3.79928C20.5691 3.48854 21.0249 3.31396 21.5 3.31396C21.9752 3.31396 22.4309 3.48854 22.7669 3.79928C23.1029 4.11001 23.2917 4.53147 23.2917 4.97092V8.28483C23.2917 8.72428 23.1029 9.14573 22.7669 9.45647C22.4309 9.76721 21.9752 9.94178 21.5 9.94178Z" fill="#FE9517"/>
<path d="M21.5 36.453C21.0249 36.453 20.5691 36.2784 20.2331 35.9677C19.8971 35.657 19.7084 35.2355 19.7084 34.7961V31.4822C19.7084 31.0427 19.8971 30.6212 20.2331 30.3105C20.5691 29.9998 21.0249 29.8252 21.5 29.8252C21.9752 29.8252 22.4309 29.9998 22.7669 30.3105C23.1029 30.6212 23.2917 31.0427 23.2917 31.4822V34.7961C23.2917 35.2355 23.1029 35.657 22.7669 35.9677C22.4309 36.2784 21.9752 36.453 21.5 36.453Z" fill="#FE9517"/>
<path d="M12.6311 13.3385C12.3953 13.3398 12.1616 13.298 11.9433 13.2155C11.725 13.1331 11.5265 13.0116 11.359 12.858L8.8328 10.5051C8.53927 10.1881 8.3859 9.78041 8.40331 9.36339C8.42073 8.94637 8.60766 8.55079 8.92675 8.2557C9.24583 7.9606 9.67357 7.78773 10.1245 7.77162C10.5754 7.75551 11.0163 7.89736 11.359 8.16881L13.9032 10.5051C14.0711 10.6592 14.2044 10.8424 14.2954 11.0443C14.3864 11.2462 14.4332 11.4628 14.4332 11.6816C14.4332 11.9003 14.3864 12.1169 14.2954 12.3188C14.2044 12.5207 14.0711 12.704 13.9032 12.858C13.7358 13.0116 13.5373 13.1331 13.319 13.2155C13.1007 13.298 12.8669 13.3398 12.6311 13.3385Z" fill="#FE9517"/>
<path d="M32.8948 32.0786C32.4248 32.0768 31.9744 31.9042 31.6407 31.5981L29.0965 29.2618C28.7591 28.9498 28.5696 28.5266 28.5696 28.0854C28.5696 27.6441 28.7591 27.2209 29.0965 26.9089C29.4339 26.5969 29.8915 26.4216 30.3686 26.4216C30.8457 26.4216 31.3033 26.5969 31.6407 26.9089L34.1669 29.2618C34.5006 29.5723 34.6879 29.9922 34.6879 30.43C34.6879 30.8677 34.5006 31.2877 34.1669 31.5981C33.9995 31.7517 33.8009 31.8732 33.5827 31.9556C33.3644 32.0381 33.1306 32.0799 32.8948 32.0786Z" fill="#FE9517"/>
<path d="M8.95837 21.5403H5.37504C4.89986 21.5403 4.44414 21.3658 4.10814 21.055C3.77214 20.7443 3.58337 20.3228 3.58337 19.8834C3.58337 19.4439 3.77214 19.0225 4.10814 18.7118C4.44414 18.401 4.89986 18.2264 5.37504 18.2264H8.95837C9.43355 18.2264 9.88927 18.401 10.2253 18.7118C10.5613 19.0225 10.75 19.4439 10.75 19.8834C10.75 20.3228 10.5613 20.7443 10.2253 21.055C9.88927 21.3658 9.43355 21.5403 8.95837 21.5403Z" fill="#FE9517"/>
<path d="M37.625 21.5403H34.0417C33.5665 21.5403 33.1108 21.3658 32.7748 21.055C32.4388 20.7443 32.25 20.3228 32.25 19.8834C32.25 19.4439 32.4388 19.0225 32.7748 18.7118C33.1108 18.401 33.5665 18.2264 34.0417 18.2264H37.625C38.1002 18.2264 38.5559 18.401 38.8919 18.7118C39.2279 19.0225 39.4167 19.4439 39.4167 19.8834C39.4167 20.3228 39.2279 20.7443 38.8919 21.055C38.5559 21.3658 38.1002 21.5403 37.625 21.5403Z" fill="#FE9517"/>
<path d="M10.1049 32.0786C9.86912 32.0799 9.63537 32.0381 9.41708 31.9556C9.19879 31.8732 9.00024 31.7517 8.83283 31.5981C8.49913 31.2877 8.31183 30.8677 8.31183 30.43C8.31183 29.9922 8.49913 29.5723 8.83283 29.2618L11.3591 26.9089C11.6965 26.5969 12.154 26.4216 12.6312 26.4216C13.1083 26.4216 13.5659 26.5969 13.9032 26.9089C14.2406 27.2209 14.4302 27.6441 14.4302 28.0854C14.4302 28.5266 14.2406 28.9498 13.9032 29.2618L11.3591 31.5981C11.0254 31.9042 10.5749 32.0768 10.1049 32.0786Z" fill="#FE9517"/>
<path d="M30.4582 13.3385C30.2224 13.3397 29.9887 13.2979 29.7704 13.2155C29.5521 13.133 29.3536 13.0115 29.1862 12.858C29.0182 12.7039 28.8849 12.5207 28.794 12.3187C28.703 12.1168 28.6562 11.9003 28.6562 11.6815C28.6562 11.4628 28.703 11.2462 28.794 11.0443C28.8849 10.8424 29.0182 10.6591 29.1862 10.5051L31.7303 8.16878C31.8909 7.99532 32.0886 7.85445 32.3109 7.75499C32.5332 7.65554 32.7753 7.59965 33.022 7.59083C33.2688 7.58202 33.5148 7.62047 33.7447 7.70377C33.9747 7.78708 34.1835 7.91343 34.3581 8.07491C34.5327 8.23639 34.6693 8.4295 34.7594 8.64213C34.8495 8.85476 34.891 9.08231 34.8815 9.31051C34.872 9.5387 34.8115 9.76261 34.704 9.96818C34.5965 10.1738 34.4441 10.3565 34.2566 10.5051L31.6407 12.858C31.3249 13.1485 30.9033 13.3198 30.4582 13.3385Z" fill="#FE9517"/>
</svg>
