<svg width="16" height="13" viewBox="0 0 16 13" fill="none" xmlns="http://www.w3.org/2000/svg">
<path d="M0.5 1.3125C0.5 1.06386 0.598772 0.825403 0.774587 0.649587C0.950403 0.473772 1.18886 0.375 1.4375 0.375H14.5625C14.8111 0.375 15.0496 0.473772 15.2254 0.649587C15.4012 0.825403 15.5 1.06386 15.5 1.3125C15.5 1.56114 15.4012 1.7996 15.2254 1.97541C15.0496 2.15123 14.8111 2.25 14.5625 2.25H1.4375C1.18886 2.25 0.950403 2.15123 0.774587 1.97541C0.598772 1.7996 0.5 1.56114 0.5 1.3125ZM0.5 6.3125C0.5 6.06386 0.598772 5.8254 0.774587 5.64959C0.950403 5.47377 1.18886 5.375 1.4375 5.375H14.5625C14.8111 5.375 15.0496 5.47377 15.2254 5.64959C15.4012 5.8254 15.5 6.06386 15.5 6.3125C15.5 6.56114 15.4012 6.7996 15.2254 6.97541C15.0496 7.15123 14.8111 7.25 14.5625 7.25H1.4375C1.18886 7.25 0.950403 7.15123 0.774587 6.97541C0.598772 6.7996 0.5 6.56114 0.5 6.3125ZM0.5 11.3125C0.5 11.0639 0.598772 10.8254 0.774587 10.6496C0.950403 10.4738 1.18886 10.375 1.4375 10.375H14.5625C14.8111 10.375 15.0496 10.4738 15.2254 10.6496C15.4012 10.8254 15.5 11.0639 15.5 11.3125C15.5 11.5611 15.4012 11.7996 15.2254 11.9754C15.0496 12.1512 14.8111 12.25 14.5625 12.25H1.4375C1.18886 12.25 0.950403 12.1512 0.774587 11.9754C0.598772 11.7996 0.5 11.5611 0.5 11.3125Z" fill="black"/>
</svg>
