<svg width="328" height="135" viewBox="0 0 328 135" fill="none" xmlns="http://www.w3.org/2000/svg">
<circle cx="67.5" cy="67.5" r="67.5" fill="#FF6C6C" fill-opacity="0.5"/>
<path d="M90.9185 95.0943C85.4083 67.8444 48.9031 68.2321 44.0817 95.0943H90.9185Z" stroke="#FF6C6C" stroke-width="6"/>
<path d="M135 67.5C135 104.779 104.779 135 67.5 135C30.2208 135 0 104.779 0 67.5C0 30.2208 30.2208 0 67.5 0C104.779 0 135 30.2208 135 67.5ZM10.0583 67.5C10.0583 99.2242 35.7758 124.942 67.5 124.942C99.2242 124.942 124.942 99.2242 124.942 67.5C124.942 35.7758 99.2242 10.0583 67.5 10.0583C35.7758 10.0583 10.0583 35.7758 10.0583 67.5Z" fill="#FF6C6C"/>
<ellipse cx="45.4594" cy="54.7579" rx="5.5102" ry="5.85459" fill="#FF6C6C"/>
<ellipse cx="89.541" cy="54.7577" rx="5.5102" ry="5.85459" fill="#FF6C6C"/>
<path d="M205.72 97.705H209.85V111.355H205.72V97.705ZM201.415 114.96H214.12V94.065H201.415V114.96ZM223.78 90.74V103.06H221.085V91.265H216.78V121.54H221.085V106.77H223.78V122.975H228.155V90.74H223.78ZM247.227 95.535C251.427 95.535 254.122 96.795 254.122 99.105C254.122 101.45 251.427 102.71 247.227 102.71C242.992 102.71 240.297 101.45 240.297 99.105C240.297 96.795 242.992 95.535 247.227 95.535ZM247.227 106.385C254.087 106.385 258.882 103.55 258.882 99.105C258.882 94.73 254.087 91.86 247.227 91.86C240.332 91.86 235.572 94.73 235.572 99.105C235.572 103.55 240.332 106.385 247.227 106.385ZM261.892 108.8H232.702V112.51H244.882V123.045H249.502V112.51H261.892V108.8ZM270.5 93.82H265.88V115.1H268.68C273.37 115.1 278.55 114.82 283.905 113.7L283.45 109.92C278.935 110.795 274.56 111.145 270.5 111.25V93.82ZM294.65 102.92H290.135V90.74H285.515V122.94H290.135V106.735H294.65V102.92ZM299.337 91.58V104.075H310.782V91.58H306.477V94.31H303.712V91.58H299.337ZM303.712 97.81H306.477V100.4H303.712V97.81ZM312.567 91.58V104.075H323.942V91.58H319.602V94.31H316.872V91.58H312.567ZM316.872 97.81H319.602V100.4H316.872V97.81ZM297.097 106.175V109.85H326.217V106.175H297.097ZM300.492 112.09V122.625H322.752V112.09H300.492ZM318.202 115.695V119.02H305.007V115.695H318.202Z" fill="#FF6C6C"/>
<path d="M214.6 71H200.44V68.81L206.05 63.14C207.11 62.06 208.01 61.1 208.75 60.26C209.51 59.42 210.08 58.6 210.46 57.8C210.84 57 211.03 56.11 211.03 55.13C211.03 53.95 210.68 53.06 209.98 52.46C209.28 51.84 208.37 51.53 207.25 51.53C206.19 51.53 205.27 51.71 204.49 52.07C203.71 52.43 202.91 52.93 202.09 53.57L200.68 51.8C201.52 51.1 202.48 50.51 203.56 50.03C204.66 49.53 205.89 49.28 207.25 49.28C209.25 49.28 210.83 49.79 211.99 50.81C213.15 51.83 213.73 53.22 213.73 54.98C213.73 56.1 213.5 57.15 213.04 58.13C212.58 59.11 211.94 60.08 211.12 61.04C210.3 62 209.34 63.01 208.24 64.07L203.77 68.48V68.6H214.6V71ZM224.418 57.86C226.598 57.86 228.338 58.41 229.638 59.51C230.958 60.61 231.618 62.16 231.618 64.16C231.618 66.38 230.908 68.13 229.488 69.41C228.088 70.67 226.128 71.3 223.608 71.3C222.488 71.3 221.448 71.2 220.488 71C219.528 70.8 218.718 70.51 218.058 70.13V67.64C218.778 68.08 219.648 68.43 220.668 68.69C221.708 68.93 222.698 69.05 223.638 69.05C225.218 69.05 226.488 68.68 227.448 67.94C228.428 67.18 228.918 66.01 228.918 64.43C228.918 63.03 228.488 61.96 227.628 61.22C226.768 60.46 225.408 60.08 223.548 60.08C222.988 60.08 222.348 60.13 221.628 60.23C220.908 60.33 220.328 60.43 219.888 60.53L218.568 59.69L219.378 49.58H230.118V51.98H221.628L221.118 58.19C221.458 58.13 221.918 58.06 222.498 57.98C223.078 57.9 223.718 57.86 224.418 57.86ZM243.986 71H241.406V56.03C241.406 55.17 241.416 54.48 241.436 53.96C241.456 53.44 241.486 52.9 241.526 52.34C241.206 52.66 240.906 52.93 240.626 53.15C240.366 53.37 240.046 53.65 239.666 53.99L237.386 55.85L236.006 54.08L241.796 49.58H243.986V71ZM258.574 61.43C257.854 61.11 257.254 60.9 256.774 60.8C256.314 60.68 255.864 60.62 255.424 60.62C254.864 60.62 254.274 60.79 253.654 61.13C253.034 61.47 252.484 61.89 252.004 62.39V60.05C252.964 58.99 254.164 58.46 255.604 58.46C256.164 58.46 256.734 58.52 257.314 58.64C257.894 58.76 258.644 59.02 259.564 59.42C260.284 59.74 260.874 59.96 261.334 60.08C261.814 60.18 262.264 60.23 262.684 60.23C263.264 60.23 263.864 60.06 264.484 59.72C265.104 59.38 265.654 58.96 266.134 58.46V60.77C265.154 61.85 263.954 62.39 262.534 62.39C261.954 62.39 261.374 62.33 260.794 62.21C260.214 62.07 259.474 61.81 258.574 61.43Z" fill="#FF6C6C"/>
</svg>
