<svg width="21" height="21" viewBox="0 0 21 21" fill="none" xmlns="http://www.w3.org/2000/svg">
<path d="M10.5022 6.78125C9.806 6.78125 9.13833 7.05781 8.64604 7.55009C8.15376 8.04238 7.8772 8.71006 7.8772 9.40625C7.8772 10.1024 8.15376 10.7701 8.64604 11.2624C9.13833 11.7547 9.806 12.0313 10.5022 12.0313C11.1984 12.0313 11.8661 11.7547 12.3584 11.2624C12.8506 10.7701 13.1272 10.1024 13.1272 9.40625C13.1272 8.71006 12.8506 8.04238 12.3584 7.55009C11.8661 7.05781 11.1984 6.78125 10.5022 6.78125ZM8.97095 9.40625C8.97095 9.00014 9.13228 8.61066 9.41944 8.32349C9.70661 8.03633 10.0961 7.875 10.5022 7.875C10.9083 7.875 11.2978 8.03633 11.585 8.32349C11.8721 8.61066 12.0334 9.00014 12.0334 9.40625C12.0334 9.81236 11.8721 10.2018 11.585 10.489C11.2978 10.7762 10.9083 10.9375 10.5022 10.9375C10.0961 10.9375 9.70661 10.7762 9.41944 10.489C9.13228 10.2018 8.97095 9.81236 8.97095 9.40625Z" fill="black"/>
<path d="M16.1875 14L11.774 18.6856C11.6104 18.8594 11.413 18.9978 11.1939 19.0924C10.9748 19.1871 10.7387 19.2359 10.5 19.2359C10.2614 19.2359 10.0252 19.1871 9.80614 19.0924C9.58705 18.9978 9.38962 18.8594 9.22601 18.6856L4.81251 14H4.82914L4.8217 13.9913L4.81251 13.9803C3.67969 12.6405 3.0595 10.942 3.06251 9.1875C3.06251 5.07981 6.39232 1.75 10.5 1.75C14.6077 1.75 17.9375 5.07981 17.9375 9.1875C17.9405 10.942 17.3203 12.6405 16.1875 13.9803L16.1783 13.9913L16.1709 14H16.1875ZM15.3374 13.2917C16.3122 12.1466 16.8464 10.6913 16.8438 9.1875C16.8438 5.684 14.0035 2.84375 10.5 2.84375C6.99651 2.84375 4.15626 5.684 4.15626 9.1875C4.15626 10.7538 4.72239 12.1853 5.66257 13.2917L5.79732 13.4505L10.0223 17.9353C10.0836 18.0005 10.1576 18.0524 10.2398 18.0879C10.322 18.1233 10.4105 18.1417 10.5 18.1417C10.5895 18.1417 10.6781 18.1233 10.7602 18.0879C10.8424 18.0524 10.9164 18.0005 10.9778 17.9353L15.2027 13.4505L15.3374 13.2917Z" fill="black"/>
</svg>
