<svg width="30" height="30" viewBox="0 0 30 30" fill="none" xmlns="http://www.w3.org/2000/svg">
<rect width="30" height="30" rx="10" fill="#F7F3F3"/>
<path d="M12.5 22.5C14.7187 22.4995 16.8735 21.7568 18.6212 20.39L24.1162 25.885L25.8837 24.1175L20.3887 18.6225C21.7562 16.8746 22.4995 14.7193 22.5 12.5C22.5 6.98625 18.0137 2.5 12.5 2.5C6.98625 2.5 2.5 6.98625 2.5 12.5C2.5 18.0137 6.98625 22.5 12.5 22.5ZM12.5 5C16.6362 5 20 8.36375 20 12.5C20 16.6362 16.6362 20 12.5 20C8.36375 20 5 16.6362 5 12.5C5 8.36375 8.36375 5 12.5 5Z" fill="black"/>
<path d="M14.265 10.7325C14.7387 11.2075 15 11.835 15 12.5H17.5C17.5011 11.8431 17.372 11.1924 17.1201 10.5856C16.8682 9.97886 16.4985 9.42805 16.0325 8.96502C14.14 7.07502 10.8587 7.07502 8.96747 8.96502L10.7325 10.735C11.6825 9.78752 13.32 9.79002 14.265 10.7325Z" fill="black"/>
</svg>
